<svg xmlns="http://www.w3.org/2000/svg" width="25" height="25" fill="none"><g clip-path="url(#a)"><mask id="b" width="25" height="25" x="0" y="0" maskUnits="userSpaceOnUse" style="mask-type:luminance"><path fill="#fff" d="M24.58.08h-24v24h24v-24Z"/></mask><g mask="url(#b)"><path fill="#BA8D5B" d="M12.58 24.08c6.627 0 12-5.372 12-12 0-6.627-5.373-12-12-12s-12 5.373-12 12 5.373 12 12 12Z"/><path fill="#fff" d="M15.13 5.412h-5.094A4.12 4.12 0 0 0 5.92 9.53v5.094a4.12 4.12 0 0 0 4.117 4.117h5.094a4.12 4.12 0 0 0 4.117-4.117V9.529a4.12 4.12 0 0 0-4.117-4.117Zm2.629 9.216a2.637 2.637 0 0 1-2.635 2.635h-5.093a2.637 2.637 0 0 1-2.635-2.635V9.535A2.637 2.637 0 0 1 10.031 6.9h5.093a2.637 2.637 0 0 1 2.635 2.635v5.093Z"/><path fill="#fff" d="M12.58 8.67a3.414 3.414 0 0 0-3.408 3.408 3.414 3.414 0 0 0 3.408 3.408 3.414 3.414 0 0 0 3.408-3.408A3.414 3.414 0 0 0 12.58 8.67Zm0 5.477a2.071 2.071 0 0 1-2.07-2.07c0-1.14.928-2.068 2.07-2.068 1.141 0 2.07.928 2.07 2.069s-.929 2.07-2.07 2.07ZM16.247 9.043a.576.576 0 1 0-.184-1.137.576.576 0 0 0 .184 1.137Z"/></g></g><defs><clipPath id="a"><path fill="#fff" d="M.58.08h24v24h-24z"/></clipPath></defs></svg>