<svg xmlns="http://www.w3.org/2000/svg" width="25" height="24" fill="none"><g clip-path="url(#a)"><mask id="b" width="25" height="24" x="0" y="0" maskUnits="userSpaceOnUse" style="mask-type:luminance"><path fill="#fff" d="M24.58 0h-24v24h24V0Z"/></mask><g mask="url(#b)"><path fill="#BA8D5B" d="M12.58 24c6.627 0 12-5.373 12-12s-5.373-12-12-12-12 5.373-12 12 5.373 12 12 12Z"/><path fill="#021923" d="M15.13 5.332h-5.094A4.12 4.12 0 0 0 5.92 9.449v5.094a4.12 4.12 0 0 0 4.117 4.117h5.094a4.12 4.12 0 0 0 4.117-4.117V9.449a4.12 4.12 0 0 0-4.117-4.117Zm2.629 9.216a2.637 2.637 0 0 1-2.635 2.635h-5.093a2.637 2.637 0 0 1-2.635-2.635V9.455a2.637 2.637 0 0 1 2.635-2.635h5.093a2.637 2.637 0 0 1 2.635 2.635v5.093Z"/><path fill="#021923" d="M12.58 8.59a3.414 3.414 0 0 0-3.408 3.408 3.414 3.414 0 0 0 3.408 3.408 3.414 3.414 0 0 0 3.408-3.408A3.414 3.414 0 0 0 12.58 8.59Zm0 5.477a2.071 2.071 0 0 1-2.07-2.07c0-1.14.928-2.068 2.07-2.068 1.141 0 2.07.928 2.07 2.069s-.929 2.07-2.07 2.07ZM16.247 8.963a.576.576 0 1 0-.184-1.137.576.576 0 0 0 .184 1.137Z"/></g></g><defs><clipPath id="a"><path fill="#fff" d="M.58 0h24v24h-24z"/></clipPath></defs></svg>