<svg xmlns="http://www.w3.org/2000/svg" width="25" height="25" fill="none"><g clip-path="url(#a)"><path fill="#BA8D5B" d="M.58 12.08c0-6.627 5.373-12 12-12s12 5.373 12 12-5.373 12-12 12-12-5.372-12-12Z"/><path fill="#fff" fill-rule="evenodd" d="M9.24 7.491c0 .785-.591 1.413-1.54 1.413h-.017c-.913 0-1.503-.628-1.503-1.413 0-.8.608-1.41 1.539-1.41.93 0 1.503.61 1.52 1.41Zm-.18 2.528v8.17H6.34v-8.17h2.72Zm9.808 8.17v-4.684c0-2.51-1.341-3.678-3.131-3.678-1.444 0-2.09.793-2.451 1.35v-1.158h-2.72c.036.767 0 8.171 0 8.171h2.72v-4.563c0-.244.017-.488.09-.663.196-.488.643-.993 1.395-.993.984 0 1.378.75 1.378 1.848v4.37h2.719Z" clip-rule="evenodd"/></g><defs><clipPath id="a"><path fill="#fff" d="M.58.08h24v24h-24z"/></clipPath></defs></svg>